<svg width="204" height="331" viewBox="0 0 204 331" fill="none" xmlns="http://www.w3.org/2000/svg">
<path d="M0.314001 299.969L85.347 213.324C107.646 190.219 124.572 167.785 136.125 146.023C147.946 123.992 153.857 101.29 153.857 77.916C153.857 54.2733 148.752 37.0787 138.543 26.332C128.602 15.3166 115.035 9.80898 97.84 9.80898C84.4067 9.80898 72.7197 13.436 62.779 20.69C52.8383 27.944 47.868 37.4817 47.868 49.303C47.868 63.5423 54.9877 74.1547 69.227 81.14C69.227 90.812 66.2717 98.2003 60.361 103.305C54.4503 108.41 47.465 110.962 39.405 110.962C30.8077 110.962 23.4193 107.872 17.24 101.693C11.0607 95.245 7.971 86.5133 7.971 75.498C7.971 60.99 12.404 48.094 21.27 36.81C30.136 25.2573 41.9573 16.3913 56.734 10.212C71.5107 3.76398 87.362 0.539979 104.288 0.539979C137.065 0.539979 161.38 8.33132 177.231 23.914C193.082 39.228 201.008 59.5123 201.008 84.767C201.008 100.081 197.784 114.186 191.336 127.082C185.157 139.709 177.634 150.725 168.768 160.128C160.171 169.531 148.349 180.815 133.304 193.98L122.02 203.652L25.703 288.685H176.022L192.545 229.041H203.023V331H0.314001V299.969Z" fill="#2E2F32"/>
</svg>
