<svg width="207" height="331" viewBox="0 0 207 331" fill="none" xmlns="http://www.w3.org/2000/svg">
<path d="M88.931 330.86C72.687 330.86 57.753 327.716 44.129 321.428C30.767 315.14 20.156 306.625 12.296 295.883C4.436 285.141 0.506001 273.089 0.506001 259.727C0.506001 248.985 3.519 240.601 9.545 234.575C15.571 228.287 22.776 225.143 31.16 225.143C39.02 225.143 45.832 227.632 51.596 232.61C57.36 237.588 60.242 244.793 60.242 254.225C46.356 261.037 39.413 271.517 39.413 285.665C39.413 296.407 43.867 305.184 52.775 311.996C61.945 318.546 73.997 321.821 88.931 321.821C107.795 321.821 123.122 314.747 134.912 300.599C146.702 286.451 152.597 266.67 152.597 241.256C152.597 213.746 144.737 192.524 129.017 177.59C113.297 162.394 90.11 153.879 59.456 152.045V143.399C86.966 141.827 108.319 134.491 123.515 121.391C138.973 108.029 146.702 90.082 146.702 67.55C146.702 49.996 141.855 35.979 132.161 25.499C122.729 15.019 110.022 9.77898 94.04 9.77898C79.63 9.77898 68.233 12.268 59.849 17.246C51.727 21.962 47.666 28.643 47.666 37.289C47.666 51.175 54.216 61.131 67.316 67.157C67.316 76.065 64.565 83.008 59.063 87.986C53.823 92.702 47.404 95.06 39.806 95.06C31.946 95.06 25.134 92.047 19.37 86.021C13.606 79.995 10.724 72.004 10.724 62.048C10.724 50.258 14.785 39.778 22.907 30.608C31.029 21.176 41.771 13.84 55.133 8.6C68.757 3.35998 83.167 0.739979 98.363 0.739979C128.231 0.739979 151.549 6.76598 168.317 18.818C185.085 30.87 193.469 47.769 193.469 69.515C193.469 92.309 185.216 109.994 168.71 122.57C152.466 134.884 128.755 143.137 97.577 147.329V148.508C130.327 150.08 156.658 158.857 176.57 174.839C196.744 190.559 206.831 212.698 206.831 241.256C206.831 257.238 202.377 272.041 193.469 285.665C184.823 299.289 171.592 310.293 153.776 318.677C136.222 326.799 114.607 330.86 88.931 330.86Z" fill="#2E2F32"/>
</svg>
